<svg id="email" xmlns="http://www.w3.org/2000/svg" width="24.741" height="18.846" viewBox="0 0 24.741 18.846">
  <g id="Group_5482" data-name="Group 5482" transform="translate(0 0)">
    <path id="Path_10315" data-name="Path 10315" d="M22.566,61H2.174A2.178,2.178,0,0,0,0,63.174v14.5a2.178,2.178,0,0,0,2.174,2.174H22.566a2.178,2.178,0,0,0,2.174-2.174v-14.5A2.178,2.178,0,0,0,22.566,61Zm-.3,1.45-9.85,9.85L2.482,62.45ZM1.45,77.371v-13.9l6.982,6.922ZM2.475,78.4,9.461,71.41l2.448,2.427a.725.725,0,0,0,1.023,0l2.387-2.387L22.266,78.4Zm20.817-1.025-6.948-6.948,6.948-6.948Z" transform="translate(0 -61)" fill="#f80"/>
  </g>
</svg>
