<svg id="location" xmlns="http://www.w3.org/2000/svg" width="19.004" height="30.387" viewBox="0 0 19.004 30.387">
  <path id="Path_10316" data-name="Path 10316" d="M177.049,87.374a4.981,4.981,0,1,0-4.981-4.981A4.987,4.987,0,0,0,177.049,87.374Zm0-8.181a3.2,3.2,0,1,1-3.2,3.2A3.2,3.2,0,0,1,177.049,79.193Z" transform="translate(-167.547 -72.819)" fill="#f80"/>
  <path id="Path_10317" data-name="Path 10317" d="M99.977,18.525c1.349,1.827.807,1.116,4.694,6.665a.89.89,0,0,0,1.46,0c3.9-5.575,3.367-4.869,4.694-6.666a22.652,22.652,0,0,0,3.5-5.909,9.2,9.2,0,0,0-1.342-8.9h0a9.58,9.58,0,0,0-15.157,0,9.2,9.2,0,0,0-1.342,8.9,22.649,22.649,0,0,0,3.5,5.909ZM99.23,4.81a7.8,7.8,0,0,1,12.341,0h0a7.468,7.468,0,0,1,1.067,7.226,21.331,21.331,0,0,1-3.246,5.432c-.985,1.333-.69.926-3.992,5.658-3.3-4.728-3.007-4.325-3.992-5.658a21.332,21.332,0,0,1-3.246-5.432A7.468,7.468,0,0,1,99.23,4.81Z" transform="translate(-95.898 0)" fill="#f80"/>
  <path id="Path_10318" data-name="Path 10318" d="M110.782,370.592a.89.89,0,0,0-1.228-.277l-2.531,1.6a.891.891,0,0,0,0,1.505L115,378.456a.89.89,0,0,0,.951,0l7.977-5.038a.891.891,0,0,0,0-1.505l-2.531-1.6a.89.89,0,1,0-.951,1.505l1.34.846-6.31,3.985-6.31-3.985,1.34-.846A.89.89,0,0,0,110.782,370.592Z" transform="translate(-105.973 -348.206)" fill="#f80"/>
</svg>
