<svg id="phone-call" xmlns="http://www.w3.org/2000/svg" width="24.741" height="24.777" viewBox="0 0 24.741 24.777">
  <g id="Group_5509" data-name="Group 5509" transform="translate(0 0)">
    <path id="Path_10362" data-name="Path 10362" d="M19.908,41.321a2.437,2.437,0,0,0-1.768-.811,2.52,2.52,0,0,0-1.788.805L14.7,42.963c-.136-.073-.272-.141-.4-.209-.188-.094-.366-.183-.518-.277a17.96,17.96,0,0,1-4.3-3.922,10.6,10.6,0,0,1-1.412-2.228c.429-.392.826-.8,1.213-1.192.146-.146.293-.3.439-.444a2.4,2.4,0,0,0,0-3.619L8.288,29.644c-.162-.162-.329-.329-.486-.5-.314-.324-.643-.659-.983-.973a2.475,2.475,0,0,0-1.752-.769,2.561,2.561,0,0,0-1.778.769l-.01.01L1.5,29.979A3.826,3.826,0,0,0,.366,32.41a9.167,9.167,0,0,0,.669,3.88,22.516,22.516,0,0,0,4,6.673A24.609,24.609,0,0,0,13.23,49.38a12.767,12.767,0,0,0,4.6,1.36c.11.005.225.01.329.01a3.94,3.94,0,0,0,3.017-1.3c.005-.01.016-.016.021-.026a11.888,11.888,0,0,1,.915-.946c.225-.214.455-.439.68-.675A2.609,2.609,0,0,0,23.584,46a2.513,2.513,0,0,0-.805-1.794Zm1.872,5.506c-.005,0-.005.005,0,0-.2.22-.413.418-.638.638a13.751,13.751,0,0,0-1.009,1.046,2.521,2.521,0,0,1-1.966.831c-.078,0-.162,0-.241-.005a11.342,11.342,0,0,1-4.079-1.224,23.229,23.229,0,0,1-7.718-6.045A21.23,21.23,0,0,1,2.364,35.8a7.467,7.467,0,0,1-.586-3.274A2.4,2.4,0,0,1,2.5,30.972l1.783-1.783a1.189,1.189,0,0,1,.795-.371,1.119,1.119,0,0,1,.763.366l.016.016c.319.3.622.607.941.936.162.167.329.335.5.507l1.428,1.428a1,1,0,0,1,0,1.621c-.152.152-.3.3-.45.45-.439.45-.858.868-1.313,1.276-.01.01-.021.016-.026.026a1.067,1.067,0,0,0-.272,1.187l.016.047a11.461,11.461,0,0,0,1.689,2.756l.005.005a19.193,19.193,0,0,0,4.644,4.225,7.139,7.139,0,0,0,.643.35c.188.094.366.183.518.277.021.01.042.026.063.037a1.134,1.134,0,0,0,.518.131,1.118,1.118,0,0,0,.795-.361L17.34,42.31a1.183,1.183,0,0,1,.79-.392,1.065,1.065,0,0,1,.753.382l.01.01,2.881,2.881A1.034,1.034,0,0,1,21.78,46.828Z" transform="translate(-0.344 -25.973)" fill="#f80"/>
    <path id="Path_10363" data-name="Path 10363" d="M245.525,87.326a6.73,6.73,0,0,1,5.48,5.48.7.7,0,0,0,.7.586.935.935,0,0,0,.12-.01.707.707,0,0,0,.58-.816,8.138,8.138,0,0,0-6.631-6.631.71.71,0,0,0-.816.575A.7.7,0,0,0,245.525,87.326Z" transform="translate(-232.153 -81.432)" fill="#f80"/>
    <path id="Path_10364" data-name="Path 10364" d="M260.514,10.93A13.4,13.4,0,0,0,249.6.011a.7.7,0,1,0-.23,1.391,11.969,11.969,0,0,1,9.758,9.758.7.7,0,0,0,.7.586.934.934,0,0,0,.12-.01A.693.693,0,0,0,260.514,10.93Z" transform="translate(-235.784 0)" fill="#f80"/>
  </g>
</svg>
