<svg xmlns="http://www.w3.org/2000/svg" width="62" height="62" viewBox="0 0 62 62">
  <g id="Group_2846" data-name="Group 2846" transform="translate(-686 -2809)">
    <circle id="Ellipse_11" data-name="Ellipse 11" cx="31" cy="31" r="31" transform="translate(686 2809)" fill="#fff"/>
    <g id="Group_2845" data-name="Group 2845" transform="translate(7597.896 608.872)">
      <path id="Path_1" data-name="Path 1" d="M11.946,12.547C11.709,8.522,11.156,4.419,8,0c.868,3.788-.158,9.943.079,16.019a6.939,6.939,0,0,1,.473-.789A8.567,8.567,0,0,1,11.946,12.547Z" transform="translate(-6896.508 2208.441)" fill="#f58733" fill-rule="evenodd"/>
      <path id="Path_2" data-name="Path 2" d="M26.922,157.345c-6.155.158-10.5-1.184-16.177-1.5-4.182-.158-7.181,1.1-8.917,3.472C-.776,162.711-.3,167.6.881,171.47c1.263,4.5,3,9.311,2.762,17.439,2.762-5.682,2.6-9.627,1.894-12.7,3.788,1.736,15.151,3.235,14.914,3.077-3.946-1.815-8.6-4.34-11.837-7.812-3.393-3.709-3.788-9.311,4.892-12.468C17.689,157.582,22.108,159.791,26.922,157.345Z" transform="translate(-6889.074 2064.905)" fill="#f58733" fill-rule="evenodd"/>
      <path id="Path_3" data-name="Path 3" d="M76.549,70.291c2.288-1.1,4.577-.947,5.129.237.631,1.263-.71,3.078-3,4.182-2.209,1.1-4.5,1.026-5.129-.237C73,73.289,74.339,71.4,76.549,70.291Z" transform="translate(-6956.771 2144.384)" fill="#f58733" fill-rule="evenodd"/>
    </g>
  </g>
</svg>
