<svg xmlns="http://www.w3.org/2000/svg" width="26.641" height="28.817" viewBox="0 0 26.641 28.817">
  <path id="Path_10374" data-name="Path 10374" d="M118.582,7.366l-.433-.751L116.269,7.7l-3.093-5.356,1.429-.713-.387-.776L111.965,1.98l.532.922c-.415.029-.788.046-1.132.046a13.01,13.01,0,0,1-3.192-.464,2.021,2.021,0,0,0-.463-.054,3.325,3.325,0,0,0-2.553,1.844c-.619,1.064-.816,1.409-1.013,1.753-.151.265-.3.531-.648,1.124l-.466-.345L98.4,13.187H95.86l-3.918,3.189.007.009v3.459h1.463v9.828h.867V19.844h16.765v9.828h.867V19.844h1.445V16.4l.016-.019-3.94-3.189h-.679l1.013-1.391-1.153-.855.455-.185a3.229,3.229,0,0,1,1.591-.236c.106.009.214.015.323.015a3.2,3.2,0,0,0,2.088-.733,3.563,3.563,0,0,1,.439-.33l2.028-1.3.414.717Zm-15.465.8a.422.422,0,0,0,.147.189l1.007.687a1.728,1.728,0,0,0-.411.519.722.722,0,0,1-.926.057l-.348-.258-1.72,2.323.7.516,1.24-1.674a1.576,1.576,0,0,0,.8.084c.025,0,.049-.013.073-.018a1.715,1.715,0,0,0,.112.433,1.719,1.719,0,0,0,2.179.986,1.6,1.6,0,0,0,.323,1.095l-1.138,1.536h-.878a2.493,2.493,0,0,0-4.751,0h-1.1Zm.21,6.474h-2.872a1.624,1.624,0,0,1,2.412-.541,1.633,1.633,0,0,1,.461.541Zm9.162,4.341H92.816V17.242H112.49Zm-3.365-4.922,2.869,2.321H93.316l2.852-2.321h1.605l-.421.581h-.778V15.5h12.159v-.867H107.7l.423-.581Zm-.566-2.074-1.932,2.655h-.4l1.235-1.667-.348-.258a.724.724,0,0,1-.151-1.011l.095-.128.611-.248Zm4.483-3.238a4.3,4.3,0,0,0-.541.407,2.321,2.321,0,0,1-1.517.518c-.084,0-.167,0-.246-.011a4.09,4.09,0,0,0-1.995.3l-3.017,1.223a.86.86,0,0,1-.325.064.885.885,0,0,1-.814-.546.878.878,0,0,1,.482-1.138l1.152-.467,2.921-1.337a.433.433,0,0,0,.183-.63l-.082-.126a1.559,1.559,0,0,0-1.2-.721c-.05,0-.1-.006-.148-.006a1.541,1.541,0,0,0-1.156.509,5.859,5.859,0,0,0-.706,1.063c-.091.161-.184.327-.249.42a5.07,5.07,0,0,1-.673.3l-1.025-.7c.463-.8.637-1.1.811-1.4.2-.343.393-.687,1.011-1.748a2.4,2.4,0,0,1,1.8-1.412,1.186,1.186,0,0,1,.265.031,13.879,13.879,0,0,0,3.39.488c.478,0,1.009-.031,1.612-.081L115.1,7.416ZM107.105,7.73a2.669,2.669,0,0,1,.271-.365.688.688,0,0,1,.521-.231c.024,0,.049,0,.072,0a.729.729,0,0,1,.269.074Z" transform="translate(-91.942 -0.855)" fill="#666"/>
</svg>
