<svg xmlns="http://www.w3.org/2000/svg" xmlns:xlink="http://www.w3.org/1999/xlink" width="34" height="34" viewBox="0 0 34 34">
  <defs>
    <linearGradient id="linear-gradient" x1="1.247" y1="0.5" x2="0.066" y2="0.5" gradientUnits="objectBoundingBox">
      <stop offset="0" stop-color="#f58733"/>
      <stop offset="1" stop-color="#feab20"/>
    </linearGradient>
  </defs>
  <path id="icons8-twitter-circled" d="M19,2A17,17,0,1,0,36,19,17.019,17.019,0,0,0,19,2Zm8.306,13.692c.007.174.012.352.012.53A11.644,11.644,0,0,1,9.391,26.03a8.276,8.276,0,0,0,6.061-1.695,4.1,4.1,0,0,1-3.825-2.843,4.086,4.086,0,0,0,1.849-.07,4.1,4.1,0,0,1-3.282-4.015v-.052a4.078,4.078,0,0,0,1.854.513A4.1,4.1,0,0,1,10.781,12.4a11.63,11.63,0,0,0,8.439,4.278A4.1,4.1,0,0,1,26.2,12.944a8.208,8.208,0,0,0,2.6-.993,4.106,4.106,0,0,1-1.8,2.265,8.234,8.234,0,0,0,2.353-.645A8.325,8.325,0,0,1,27.306,15.692Z" transform="translate(-2 -2)" fill="url(#linear-gradient)"/>
</svg>
