<svg xmlns="http://www.w3.org/2000/svg" xmlns:xlink="http://www.w3.org/1999/xlink" width="43.546" height="61.372" viewBox="0 0 43.546 61.372">
  <defs>
    <linearGradient id="linear-gradient" x1="1.247" y1="0.5" x2="0.066" y2="0.5" gradientUnits="objectBoundingBox">
      <stop offset="0" stop-color="#f58733"/>
      <stop offset="1" stop-color="#feab20"/>
    </linearGradient>
  </defs>
  <g id="Group_15365" data-name="Group 15365" transform="translate(970.059 -1908.7)">
    <path id="Path_10461" data-name="Path 10461" d="M380.524,125.2a21.77,21.77,0,0,0-1.4,43.495v6.641H374.2a1.4,1.4,0,1,0,0,2.809h4.916v7.023a1.4,1.4,0,1,0,2.809,0v-7.023h4.916a1.4,1.4,0,1,0,0-2.809h-4.916v-6.641a21.77,21.77,0,0,0-1.4-43.495Zm0,40.735a18.984,18.984,0,1,1,13.4-5.56A18.963,18.963,0,0,1,380.524,165.935Z" transform="translate(-1328.81 1783.5)" fill="url(#linear-gradient)"/>
    <path id="Path_10463" data-name="Path 10463" d="M436.881,178.278a9.923,9.923,0,0,0-2.259-8.284,13.32,13.32,0,0,0-10.021-4.733,13.088,13.088,0,0,0-9.867,4.479,10.39,10.39,0,0,0-2.421,8.495,30.355,30.355,0,0,1-.985,12.572,1.4,1.4,0,0,0,2.667.881,32.692,32.692,0,0,0,1.092-13.9,7.545,7.545,0,0,1,1.786-6.228,10.231,10.231,0,0,1,15.584.221,7.126,7.126,0,0,1,1.666,5.964,29.382,29.382,0,0,0,1.1,13.975,1.4,1.4,0,0,0,2.644-.95,26.97,26.97,0,0,1-.981-12.494Z" transform="translate(-1372.887 1749.87)" fill="url(#linear-gradient)"/>
    <path id="Path_10464" data-name="Path 10464" d="M460.595,205.855a1.406,1.406,0,0,0-1.692-1.04,3.56,3.56,0,0,1-2.845-.6,3.352,3.352,0,0,1-1.366-1.582v0a1.352,1.352,0,0,0-.032-.275,1.268,1.268,0,0,0-.053-.166c-.011-.03-.017-.062-.029-.092h0a1.42,1.42,0,0,0-.08-.145c-.018-.03-.031-.063-.051-.092s-.051-.061-.076-.092h0a1.394,1.394,0,0,0-.189-.191,1.424,1.424,0,0,0-.117-.094c-.024-.016-.053-.027-.078-.042a1.357,1.357,0,0,0-.169-.088l-.01-.005c-.032-.013-.065-.018-.1-.028h0a.968.968,0,0,0-.332-.063c-.03,0-.059-.009-.09-.009h-.011a1.465,1.465,0,0,0-.2.02c-.025,0-.051,0-.076.009h0a1.457,1.457,0,0,0-.176.055c-.028.01-.058.016-.085.028a1.385,1.385,0,0,0-.172.093c-.021.013-.043.021-.063.035a1.358,1.358,0,0,0-.167.138c-.013.012-.028.021-.04.033a1.446,1.446,0,0,0-.1.122c-.024.03-.051.058-.073.09s-.035.066-.053.1h0a1.449,1.449,0,0,0-.078.149l-.006.013a5.105,5.105,0,0,1-2.874,2.441,3.965,3.965,0,0,1-2.269.378,1.4,1.4,0,0,0-2.134,1.465,1.438,1.438,0,0,0-.029.283v5.594a7.979,7.979,0,0,0,15.958,0v-5.547a1.454,1.454,0,0,0-.031-.29,1.392,1.392,0,0,0-.008-.6Zm-7.94,11.59a5.166,5.166,0,0,1-5.17-5.151v-4.5a8,8,0,0,0,1.955-.36,9.625,9.625,0,0,0,3.66-2.12,7.378,7.378,0,0,0,.95.907,6.722,6.722,0,0,0,3.774,1.472v4.6a5.166,5.166,0,0,1-5.17,5.151Z" transform="translate(-1400.941 1719.661)" fill="url(#linear-gradient)"/>
  </g>
</svg>
