<svg xmlns="http://www.w3.org/2000/svg" xmlns:xlink="http://www.w3.org/1999/xlink" width="116" height="116" viewBox="0 0 116 116">
  <defs>
    <linearGradient id="linear-gradient" x1="1.247" y1="0.5" x2="0.066" y2="0.5" gradientUnits="objectBoundingBox">
      <stop offset="0" stop-color="#f58733"/>
      <stop offset="1" stop-color="#feab20"/>
    </linearGradient>
  </defs>
  <g id="Group_15238" data-name="Group 15238" transform="translate(-288 -1787)">
    <circle id="Ellipse_5" data-name="Ellipse 5" cx="58" cy="58" r="58" transform="translate(288 1787)" fill="url(#linear-gradient)"/>
    <g id="noun-food-donation-5264363" transform="translate(308.201 1813.779)">
      <path id="Path_3680" data-name="Path 3680" d="M457.755,271.25A11.687,11.687,0,0,0,446,283.006a11.473,11.473,0,0,0,3.423,8.185l2.828,2.827-5.208,5.209h0a1.488,1.488,0,0,0,0,1.786l3.72,3.72a1.116,1.116,0,0,0,1.786,0l5.208-5.209,5.209,5.209a1.116,1.116,0,0,0,1.786,0l3.72-3.72a1.488,1.488,0,0,0,0-1.786l-5.209-5.209,2.827-2.827h0a11.473,11.473,0,0,0,3.423-8.185,11.687,11.687,0,0,0-11.756-11.756Zm7.887,28.87-1.786,1.786-4.316-4.167,1.935-1.935Zm-1.488-10.715-3.572,3.72h0l-3.72,3.72h0l-5.208,5.06-1.786-1.786,12.5-12.5h0a6.548,6.548,0,1,0-9.227,0l2.827,2.679-1.935,1.935-2.679-2.828h0a9.019,9.019,0,0,1-2.679-6.4,9.366,9.366,0,0,1,2.679-6.548,9.358,9.358,0,0,1,12.8,0,9.365,9.365,0,0,1,2.679,6.548A9.018,9.018,0,0,1,464.154,289.405Zm-6.4-.893-2.827-2.828a3.619,3.619,0,0,1-1.042-2.679,3.97,3.97,0,0,1,1.042-2.828,3.953,3.953,0,0,1,5.655,0,3.97,3.97,0,0,1,1.042,2.828,3.619,3.619,0,0,1-1.042,2.679Z" transform="translate(-393.914 -239.999)" fill="#fff" fill-rule="evenodd"/>
      <path id="Path_3681" data-name="Path 3681" d="M97.338,416.458h49.555a1.244,1.244,0,0,0,1.191-1.339,1.12,1.12,0,0,0-1.191-1.191H98.678v-1.339a1.339,1.339,0,0,0-2.679,0v2.53a1.578,1.578,0,0,0,1.339,1.339Z" transform="translate(-95.999 -359.165)" fill="#fff" fill-rule="evenodd"/>
      <path id="Path_3682" data-name="Path 3682" d="M98.678,377.589a1.339,1.339,0,1,1-1.339-1.339,1.367,1.367,0,0,1,1.339,1.339" transform="translate(-95.999 -329.373)" fill="#fff"/>
      <path id="Path_3683" data-name="Path 3683" d="M97.338,105.6a1.578,1.578,0,0,0,1.339-1.339v-1.339h45.537a1.367,1.367,0,0,0,1.339-1.339,1.244,1.244,0,0,0-1.339-1.191H98.678v-13.1H158.5v1.339a1.339,1.339,0,1,0,2.679,0V85.953a1.309,1.309,0,0,0-.446-.893,1.169,1.169,0,0,0-.893-.3h-2.53A19.84,19.84,0,0,0,146,73.006a9.02,9.02,0,0,0,3.423-3.274,9.273,9.273,0,0,0,1.339-4.613,1.309,1.309,0,0,0-.446-.893,1.169,1.169,0,0,0-.893-.3h-2.679a8.9,8.9,0,0,0-5.953,2.232,8.987,8.987,0,0,0-2.976,5.655,19.676,19.676,0,0,0-15.774,9.822v-6.1a6.274,6.274,0,0,0-1.488-4.018,6.657,6.657,0,0,0-3.72-2.381V62.589a1.169,1.169,0,0,0-.3-.893,1.67,1.67,0,0,0-1.042-.446H105.077a1.309,1.309,0,0,0-.893.446,1.169,1.169,0,0,0-.3.893v6.548a6.657,6.657,0,0,0-3.72,2.381,6.275,6.275,0,0,0-1.488,4.018v9.227H97.338a1.169,1.169,0,0,0-.893.3,1.309,1.309,0,0,0-.446.893v18.3a1.578,1.578,0,0,0,1.339,1.339Zm44.942-37.2a6.18,6.18,0,0,1,4.464-1.935h1.191a6.432,6.432,0,0,1-2.232,3.72,6.278,6.278,0,0,1-4.018,1.488h-1.191A6.527,6.527,0,0,1,142.281,68.393Zm-3.274,5.8a17.164,17.164,0,0,1,9.375,2.976,16.756,16.756,0,0,1,6.25,7.441H123.381a16.756,16.756,0,0,1,6.25-7.441A17.164,17.164,0,0,1,139.007,74.2ZM106.416,63.78H114.3v5.209h-7.887Zm-1.339,7.887h10.417a4.114,4.114,0,0,1,2.827,1.191,3.769,3.769,0,0,1,1.191,2.679v1.339h-18.3V75.536a3.769,3.769,0,0,1,1.191-2.679,4.114,4.114,0,0,1,2.827-1.191Zm-3.869,7.738h18.3v5.209h-18.3Z" transform="translate(-95.999 -61.25)" fill="#fff" fill-rule="evenodd"/>
    </g>
  </g>
</svg>
