<svg xmlns="http://www.w3.org/2000/svg" width="182.45" height="113.601" viewBox="0 0 182.45 113.601">
  <g id="Layer_x0020_1" transform="translate(0.071)">
    <g id="_840251744" transform="translate(-0.071)">
      <g id="Group_1" data-name="Group 1">
        <path id="Path_1" data-name="Path 1" d="M17.878,31.413C17.286,21.337,15.9,11.064,8,0c2.173,9.483-.4,24.893.2,40.106A17.374,17.374,0,0,1,9.383,38.13,21.449,21.449,0,0,1,17.878,31.413Z" transform="translate(-6.405)" fill="#f58733" fill-rule="evenodd"/>
        <path id="Path_2" data-name="Path 2" d="M67.511,159.619c-15.41.4-26.276-2.964-40.5-3.754-10.471-.4-17.979,2.766-22.325,8.693-6.52,8.5-5.334,20.745-2.371,30.425,3.161,11.261,7.508,23.313,6.915,43.662,6.915-14.225,6.52-24.1,4.742-31.808,9.483,4.346,37.933,8.1,37.34,7.705C41.432,210,29.775,203.677,21.675,194.984c-8.5-9.286-9.483-23.313,12.249-31.216C44.4,160.212,55.459,165.744,67.511,159.619Z" transform="translate(0.071 -125.045)" fill="#f58733" fill-rule="evenodd"/>
        <path id="Path_3" data-name="Path 3" d="M81.244,71.413c5.729-2.766,11.459-2.371,12.842.593,1.581,3.161-1.778,7.705-7.508,10.471-5.532,2.766-11.261,2.568-12.842-.593C72.354,78.92,75.713,74.178,81.244,71.413Z" transform="translate(-58.905 -55.805)" fill="#f58733" fill-rule="evenodd"/>
        <path id="Path_4" data-name="Path 4" d="M134.389,211.254a2.075,2.075,0,0,1,1.778-.988,4.864,4.864,0,0,1,2.371.2,5.017,5.017,0,0,1,1.976,1.581,3.063,3.063,0,0,1,.4,2.371c-.2.593-.593,1.185-.988,2.173-.4.79-.988,1.581-1.383,2.568a11.2,11.2,0,0,0-1.581,2.568c-.593.79-.988,1.581-1.383,2.173a8.888,8.888,0,0,0-.4,1.581c0,.4.4.593.79.593a4.1,4.1,0,0,0,2.371-.988,10.355,10.355,0,0,0,1.976-2.173,10.88,10.88,0,0,0,1.778-2.766c.593-.988.988-1.778,1.383-2.568A2.454,2.454,0,0,1,144.662,216a1.306,1.306,0,0,1,1.185-.2,1.391,1.391,0,0,1,.79.988,2.566,2.566,0,0,1-.4,1.976,14.008,14.008,0,0,1-1.383,3.161,11.211,11.211,0,0,1-2.371,3.556,12.1,12.1,0,0,1-3.359,2.964,7.124,7.124,0,0,1-3.951,1.185,2.916,2.916,0,0,1-2.964-1.581,7.566,7.566,0,0,1-.988-3.754,15.262,15.262,0,0,1-3.359,3.754,6.5,6.5,0,0,1-8.5-.4A7.9,7.9,0,0,1,117.4,224.1a18.968,18.968,0,0,1,0-4.742,22.624,22.624,0,0,1,5.532-10.076,13.365,13.365,0,0,1,5.137-3.556,17.726,17.726,0,0,1,6.52-1.778,23.386,23.386,0,0,1,7.9.988,3.544,3.544,0,0,1,1.383.988,2.13,2.13,0,0,1,.4,1.383,1.008,1.008,0,0,1-.79.988,3.3,3.3,0,0,1-1.976,0,11.91,11.91,0,0,0-4.544-.2,15.029,15.029,0,0,0-4.149,1.581,13.812,13.812,0,0,0-3.359,2.568,41.388,41.388,0,0,0-2.766,3.359,14.959,14.959,0,0,0-1.778,3.556,7.261,7.261,0,0,0-.988,3.161,5.621,5.621,0,0,0,0,2.568,1.252,1.252,0,0,0,1.185.988,2.352,2.352,0,0,0,2.173-.593,7.2,7.2,0,0,0,1.976-2.173c.593-.988,1.185-1.976,1.778-3.161s1.185-2.371,1.581-3.359a14.805,14.805,0,0,1,.988-3.161C133.8,212.637,134.191,211.847,134.389,211.254Zm25.091,0c.2-.79.593-1.383,1.383-1.383a5.616,5.616,0,0,1,2.371.79,7.045,7.045,0,0,1,1.976,2.173,2.9,2.9,0,0,1,.2,2.568c-.2.2-.2.79-.4,1.383a5.917,5.917,0,0,0-.79,1.976c-.4.79-.593,1.581-.988,2.568s-.79,1.976-1.185,3.161A22.12,22.12,0,0,0,166,221.133a20.054,20.054,0,0,0,2.568-3.556,2.52,2.52,0,0,1,.988-1.383,1.243,1.243,0,0,1,1.185,0,.85.85,0,0,1,.79.79,2.164,2.164,0,0,1,0,1.581,13.156,13.156,0,0,0-1.185,2.371,14.036,14.036,0,0,1-2.371,2.568,17.033,17.033,0,0,1-3.359,2.964,52.919,52.919,0,0,1-4.742,2.371c-.988,1.778-1.976,3.556-2.964,5.137a28.726,28.726,0,0,1-3.754,4.544,13.661,13.661,0,0,1-4.346,3.161,10.145,10.145,0,0,1-4.939,1.185,5.653,5.653,0,0,1-3.359-.79,3.249,3.249,0,0,1-1.581-2.371,4.438,4.438,0,0,1,.2-3.161,12.694,12.694,0,0,1,2.568-3.359,23.621,23.621,0,0,1,4.939-3.161,28.868,28.868,0,0,1,7.31-2.371.612.612,0,0,0,.4-.2l.593-1.185c.2-.4.4-.988.593-1.383a8.287,8.287,0,0,1-2.766,1.778,7.523,7.523,0,0,1-3.161.593,8.706,8.706,0,0,1-4.149-1.581,5.906,5.906,0,0,1-1.976-3.359,8.784,8.784,0,0,1-.2-4.544,14.9,14.9,0,0,1,1.581-4.742,17.149,17.149,0,0,1,3.359-4.346,14.592,14.592,0,0,1,4.939-3.359,22.529,22.529,0,0,1,6.52-1.581,28.165,28.165,0,0,1,7.705,1.185,3.117,3.117,0,0,1,1.581.988,5.025,5.025,0,0,1,.4,1.383,1.313,1.313,0,0,1-.79.988,3.9,3.9,0,0,1-2.173,0,11.255,11.255,0,0,0-5.729,0,16.856,16.856,0,0,0-4.939,2.568,16.059,16.059,0,0,0-3.556,3.754,19.782,19.782,0,0,0-1.976,4.149,6.824,6.824,0,0,0-.4,3.359c.2.988.593,1.581,1.383,1.778a4.5,4.5,0,0,0,2.173-.593,10.81,10.81,0,0,0,1.976-2.173c.4-.79.988-1.778,1.581-2.766L158.1,215.4a22.156,22.156,0,0,0,.988-2.568c.2-.79.2-1.185.4-1.383ZM144.267,240.1q1.482,0,3.556-2.371a28.107,28.107,0,0,0,4.742-6.717,25.934,25.934,0,0,0-6.125,2.568,11.566,11.566,0,0,0-3.161,2.964,3.3,3.3,0,0,0-.593,2.568A1.564,1.564,0,0,0,144.267,240.1Zm40.5-26.474a8.192,8.192,0,0,1-.79,2.371c-.593.79-.988,1.778-1.581,2.568-.593.988-1.185,1.976-1.581,2.766-.593.988-.988,1.778-1.383,2.568a2.657,2.657,0,0,0-.4,1.581c0,.4.2.593.79.593a3.6,3.6,0,0,0,2.173-.988,22.536,22.536,0,0,0,2.173-2.173c.593-.988,1.185-1.778,1.778-2.766.4-.988.79-1.778,1.185-2.568A5.455,5.455,0,0,1,188.325,216a1.306,1.306,0,0,1,1.185-.2c.4.2.79.4.79.988a3.561,3.561,0,0,1-.2,1.976,15.67,15.67,0,0,1-1.581,3.161,11.211,11.211,0,0,1-2.371,3.556,14.855,14.855,0,0,1-3.161,2.964,7.776,7.776,0,0,1-4.149,1.185,3.209,3.209,0,0,1-2.766-.988,4.741,4.741,0,0,1-1.383-2.371,19.21,19.21,0,0,1-.2-3.556c.2-1.185.4-2.568.593-3.754.4-1.383.79-2.766,1.185-3.951s.79-2.173,1.185-3.161h0a2.621,2.621,0,0,0-.2-2.173,9.128,9.128,0,0,1-1.383-1.383c-.4.79-.593,1.581-.988,2.568a19.938,19.938,0,0,0-1.383,2.964c-.4.988-.79,1.976-1.185,2.766a7.571,7.571,0,0,1-.988,2.173,2.049,2.049,0,0,1-1.185,1.581,1.259,1.259,0,0,1-1.185,0,1.814,1.814,0,0,1-.79-1.185,1.742,1.742,0,0,1,.4-1.581c.2-.4.4-.988.79-1.778l1.185-2.371c.4-.988.79-1.778,1.185-2.766a22.159,22.159,0,0,0,.988-2.568,19.249,19.249,0,0,0,.988-2.173c.2-.4.2-.79.4-.988a4.925,4.925,0,0,1,.4-2.766,3.611,3.611,0,0,1,1.185-1.581c.593-.2.988-.4,1.383-.2a1.391,1.391,0,0,1,.988.79,1.92,1.92,0,0,1-.2,1.778c-.4.79-.593,1.383-.4,1.778a1.794,1.794,0,0,0,.593,1.383,5.455,5.455,0,0,0,1.581,1.185c.593.4,1.581.988,2.568,1.778a4.133,4.133,0,0,1,1.185.79,2.381,2.381,0,0,1,.988.988c.2.4.4.988.593,1.383A3.362,3.362,0,0,1,184.768,213.625Zm16.4,5.137a14.7,14.7,0,0,1-4.346.988,15,15,0,0,1-3.161-.2,6.821,6.821,0,0,0-.593,2.568,4.8,4.8,0,0,0,0,2.371,2,2,0,0,0,.79,1.383,3.338,3.338,0,0,0,1.976.593,13.757,13.757,0,0,0,4.939-.988,15.028,15.028,0,0,0,3.754-2.371,18.447,18.447,0,0,0,2.568-2.964c.593-.988,1.185-1.778,1.581-2.568A2.454,2.454,0,0,1,209.859,216a1.306,1.306,0,0,1,1.185-.2,1.391,1.391,0,0,1,.79.988,2.566,2.566,0,0,1-.4,1.976,9.426,9.426,0,0,1-1.581,3.161,14.382,14.382,0,0,1-3.359,3.556,15.084,15.084,0,0,1-4.544,2.964,14.435,14.435,0,0,1-5.927,1.185,8.8,8.8,0,0,1-6.125-1.976,8.936,8.936,0,0,1-2.766-4.742,13.665,13.665,0,0,1,0-6.322,17.343,17.343,0,0,1,8.1-11.261,15.908,15.908,0,0,1,7.705-1.976,8.837,8.837,0,0,1,4.346.988,4.364,4.364,0,0,1,1.976,2.568,5.865,5.865,0,0,1-.2,3.161,9.4,9.4,0,0,1-1.581,3.556,13.833,13.833,0,0,1-2.766,3.161A10.715,10.715,0,0,1,201.167,218.762ZM199.981,216a6.656,6.656,0,0,0,3.359-2.173,7.734,7.734,0,0,0,1.976-3.161,4.128,4.128,0,0,0,.4-2.568,1.5,1.5,0,0,0-1.581-1.185,3.678,3.678,0,0,0-2.173.79,13.6,13.6,0,0,0-2.568,2.173c-.79.988-1.581,1.976-2.371,3.161a23.277,23.277,0,0,0-2.173,3.754h2.371A20.266,20.266,0,0,0,199.981,216Zm8.693,1.581a23.6,23.6,0,0,1,2.371-4.346c.79-1.581,1.778-2.964,2.568-4.346a47.263,47.263,0,0,0,2.568-4.149,29.773,29.773,0,0,0,2.371-3.951c.593-.79,1.185-1.185,1.778-.988a4.709,4.709,0,0,1,2.173,1.185,8.159,8.159,0,0,1,1.383,2.173c.4.988.4,1.581,0,1.976v1.185a5.025,5.025,0,0,0,.4,1.383,3.187,3.187,0,0,0,.593,1.778c.2.593.4,1.185.593,1.976a16.079,16.079,0,0,1,.79,6.717,13.179,13.179,0,0,1-1.976,5.729,10.562,10.562,0,0,0,2.568-2.568,31.08,31.08,0,0,0,2.371-3.754A3.349,3.349,0,0,1,230.406,216a1.671,1.671,0,0,1,1.383,0c.4,0,.593.4.79.79a4.417,4.417,0,0,1-.593,1.976,14.7,14.7,0,0,1-2.766,4.346c-1.185,1.185-2.568,2.371-3.951,3.556a22.733,22.733,0,0,1-4.939,2.371,12.936,12.936,0,0,1-5.532.593h-.2a5.7,5.7,0,0,1-3.754-1.185,8.044,8.044,0,0,1-2.371-2.766,11.552,11.552,0,0,1-.79-3.754,11.188,11.188,0,0,1,.593-3.556C208.279,218.169,208.476,217.972,208.674,217.577Zm5.532,3.951a2.5,2.5,0,0,0-1.778.79,2.243,2.243,0,0,0-.593,1.581,2.129,2.129,0,0,0,.4,1.581,1.491,1.491,0,0,0,1.383.79,4.1,4.1,0,0,0,2.371-.988,5.348,5.348,0,0,0,1.976-2.173,8.729,8.729,0,0,0,1.185-3.161,11.692,11.692,0,0,0,.2-3.754,13.425,13.425,0,0,0-.593-3.754,10.614,10.614,0,0,0-1.976-3.161,405713.131,405713.131,0,0,0-2.371,3.951l-1.185,2.371a3.011,3.011,0,0,1,1.976,1.185,9.229,9.229,0,0,1,.988,1.976,3.25,3.25,0,0,1-.2,1.976A1.926,1.926,0,0,1,214.206,221.528Zm31.413-10.273a1.564,1.564,0,0,1,1.581-.988,4.864,4.864,0,0,1,2.371.2,3.945,3.945,0,0,1,1.976,1.581,2.04,2.04,0,0,1,.4,2.371,7.386,7.386,0,0,1-.79,2.173c-.4.79-.988,1.581-1.581,2.568-.4.79-.988,1.581-1.581,2.568A21.547,21.547,0,0,1,246.8,223.9a8.887,8.887,0,0,0-.4,1.581c0,.4.2.593.79.593a4.1,4.1,0,0,0,2.371-.988,21.627,21.627,0,0,0,1.976-2.173c.593-.988,1.185-1.778,1.778-2.766a9.637,9.637,0,0,0,1.185-2.568A5.455,5.455,0,0,1,255.7,216c.593-.2.988-.4,1.383-.2a1.391,1.391,0,0,1,.79.988,3.908,3.908,0,0,1-.4,1.976,14.01,14.01,0,0,1-1.383,3.161,16.436,16.436,0,0,1-2.568,3.556,11.31,11.31,0,0,1-3.161,2.964,7.124,7.124,0,0,1-3.951,1.185c-1.581,0-2.568-.4-3.161-1.581a7.521,7.521,0,0,1-.79-3.754,20.658,20.658,0,0,1-3.359,3.754,7.112,7.112,0,0,1-4.346,1.383,6.71,6.71,0,0,1-4.149-1.778,7.9,7.9,0,0,1-1.976-3.556,9.6,9.6,0,0,1,0-4.742,22.567,22.567,0,0,1,1.778-5.137,28.391,28.391,0,0,1,3.556-4.939,15.036,15.036,0,0,1,5.137-3.556,17.722,17.722,0,0,1,6.717-1.778,21.76,21.76,0,0,1,7.705.988,3.117,3.117,0,0,1,1.581.988,5.026,5.026,0,0,1,.4,1.383,1.313,1.313,0,0,1-.79.988,3.9,3.9,0,0,1-2.173,0,11.756,11.756,0,0,0-4.544-.2,15.624,15.624,0,0,0-7.31,4.149,20.707,20.707,0,0,0-2.766,3.359,31.967,31.967,0,0,0-1.976,3.556,28.134,28.134,0,0,0-.988,3.161,10.437,10.437,0,0,0,.2,2.568,1.252,1.252,0,0,0,1.185.988,2,2,0,0,0,1.976-.593,7.514,7.514,0,0,0,2.173-2.173c.593-.988,1.185-1.976,1.778-3.161s.988-2.371,1.581-3.359c.2-1.185.593-2.173.79-3.161A19.249,19.249,0,0,0,245.619,211.254Zm25.289,2.371a8.192,8.192,0,0,1-.79,2.371c-.593.79-.988,1.778-1.581,2.568-.593.988-1.185,1.976-1.581,2.766-.593.988-.988,1.778-1.383,2.568a6.107,6.107,0,0,0-.4,1.581c0,.4.2.593.79.593a3.6,3.6,0,0,0,2.173-.988,22.541,22.541,0,0,0,2.173-2.173c.593-.988,1.185-1.778,1.778-2.766.4-.988.79-1.778,1.185-2.568A5.454,5.454,0,0,1,274.464,216a1.306,1.306,0,0,1,1.185-.2c.4.2.79.4.79.988a3.561,3.561,0,0,1-.2,1.976,15.671,15.671,0,0,1-1.581,3.161,11.211,11.211,0,0,1-2.371,3.556,14.855,14.855,0,0,1-3.161,2.964,7.776,7.776,0,0,1-4.149,1.185,3.209,3.209,0,0,1-2.766-.988,4.741,4.741,0,0,1-1.383-2.371,19.208,19.208,0,0,1-.2-3.556c.2-1.185.4-2.568.593-3.754.4-1.383.79-2.766,1.185-3.951s.79-2.173,1.185-3.161h0a2.621,2.621,0,0,0-.2-2.173,9.127,9.127,0,0,1-1.383-1.383c-.4.79-.593,1.581-.988,2.568a19.938,19.938,0,0,0-1.383,2.964c-.4.988-.79,1.976-1.185,2.766a7.572,7.572,0,0,1-.988,2.173,2.049,2.049,0,0,1-1.185,1.581,1.259,1.259,0,0,1-1.185,0,1.814,1.814,0,0,1-.79-1.185,1.742,1.742,0,0,1,.4-1.581c.2-.4.4-.988.79-1.778l1.185-2.371c.4-.988.79-1.778,1.185-2.766a22.15,22.15,0,0,0,.988-2.568,19.255,19.255,0,0,0,.988-2.173,3.339,3.339,0,0,0,.4-.988,4.925,4.925,0,0,1,.4-2.766,3.611,3.611,0,0,1,1.185-1.581c.593-.2.988-.4,1.383-.2a1.391,1.391,0,0,1,.988.79,1.921,1.921,0,0,1-.2,1.778c-.4.79-.593,1.383-.4,1.778a1.794,1.794,0,0,0,.593,1.383,5.455,5.455,0,0,0,1.581,1.185c.593.4,1.581.988,2.568,1.778a4.133,4.133,0,0,1,1.185.79,2.381,2.381,0,0,1,.988.988c.2.4.4.988.593,1.383A3.362,3.362,0,0,1,270.908,213.625Z" transform="translate(-94.071 -160.282)" fill="#383336"/>
        <path id="Path_5" data-name="Path 5" d="M280,379.725c7.705-23.51,92.856-18.374,123.479-15.41l-13.039,4.544c-23.115-2.173-99.376-5.334-107.476,10.471Z" transform="translate(-224.667 -290.227)" fill="#00a859"/>
        <path id="Path_6" data-name="Path 6" d="M303,409.007c8.5-15.608,89.5-9.878,105.9-9.483l-13.237,4.742c-13.237-1.383-82.188-7.31-89.5,4.544Z" transform="translate(-243.123 -319.509)" fill="#a8cf45"/>
      </g>
      <path id="Path_7" data-name="Path 7" d="M372.939,435v1.383h-3.359v1.976h2.766v1.383h-2.766V443.1H368V435Z" transform="translate(-295.281 -349.058)" fill="#2b2a29"/>
      <path id="_1" data-name="1" d="M400.359,443a4.651,4.651,0,0,1,1.581.4l1.185,1.185a4.719,4.719,0,0,1,.4,1.778,3.722,3.722,0,0,1-.4,1.581,3.355,3.355,0,0,1-1.185,1.185,4.65,4.65,0,0,1-1.581.4,4.718,4.718,0,0,1-1.778-.4,3.354,3.354,0,0,1-1.185-1.185,3.722,3.722,0,0,1-.4-1.581,4.718,4.718,0,0,1,.4-1.778l1.185-1.185A4.719,4.719,0,0,1,400.359,443Zm0,1.383a1.2,1.2,0,0,0-1.185.593,1.538,1.538,0,0,0-.593,1.383,1.794,1.794,0,0,0,.593,1.383,1.67,1.67,0,0,0,1.185.4,1.509,1.509,0,0,0,.988-.4,1.793,1.793,0,0,0,.593-1.383,1.538,1.538,0,0,0-.593-1.383A1.086,1.086,0,0,0,400.359,444.383Z" transform="translate(-318.552 -355.478)" fill="#2b2a29"/>
      <path id="_2" data-name="2" d="M441.125,444v6.322h-1.581v-1.383a1.973,1.973,0,0,1-.79.988,2.855,2.855,0,0,1-1.383.4,1.926,1.926,0,0,1-1.778-.79,2.622,2.622,0,0,1-.593-1.976V444h1.581v3.359a1.67,1.67,0,0,0,.4,1.185c.2.4.593.4.988.4.593,0,.79,0,1.185-.4a1.67,1.67,0,0,0,.4-1.185V444Z" transform="translate(-349.044 -356.28)" fill="#2b2a29"/>
      <path id="_3" data-name="3" d="M476.754,443a2.5,2.5,0,0,1,1.778.79,2.949,2.949,0,0,1,.593,1.976v3.754h-1.581v-3.556a1.451,1.451,0,0,0-.4-1.185,1.432,1.432,0,0,0-1.976,0,1.794,1.794,0,0,0-.593,1.383v3.359H473V443.2h1.581v1.185a2.381,2.381,0,0,1,.988-.988A2.809,2.809,0,0,1,476.754,443Z" transform="translate(-379.537 -355.478)" fill="#2b2a29"/>
      <path id="_4" data-name="4" d="M512.766,434.976a2.855,2.855,0,0,1,1.383.4,3.467,3.467,0,0,1,.79.988V433h1.581v8.5h-1.581v-1.383a1.972,1.972,0,0,1-.79.988,2.618,2.618,0,0,1-2.766,0,2.024,2.024,0,0,1-.988-1.185,2.129,2.129,0,0,1-.4-1.581,2.656,2.656,0,0,1,.4-1.778,5.237,5.237,0,0,1,.988-1.185A2.855,2.855,0,0,1,512.766,434.976Zm.4,1.581a1.452,1.452,0,0,0-1.185.4,2.618,2.618,0,0,0,0,2.766,2.808,2.808,0,0,0,1.185.4,1.794,1.794,0,0,0,1.383-.593,1.671,1.671,0,0,0,.4-1.185,2.856,2.856,0,0,0-.4-1.383A1.667,1.667,0,0,0,513.161,436.556Z" transform="translate(-409.227 -347.454)" fill="#2b2a29"/>
      <path id="_5" data-name="5" d="M551.766,443a3.664,3.664,0,0,1,1.383.4,3.468,3.468,0,0,1,.79.988V443.2h1.581v6.322h-1.581v-1.383a1.972,1.972,0,0,1-.79.988,3.663,3.663,0,0,1-1.383.4,2.855,2.855,0,0,1-1.383-.4c-.593-.2-.79-.593-.988-1.185a2.129,2.129,0,0,1-.4-1.581,3.568,3.568,0,0,1,1.383-2.964A2.856,2.856,0,0,1,551.766,443Zm.4,1.581a1.452,1.452,0,0,0-1.185.4,2.618,2.618,0,0,0,0,2.766,2.808,2.808,0,0,0,1.185.4,2.1,2.1,0,0,0,1.778-1.778,1.794,1.794,0,0,0-.593-1.383C553.149,444.58,552.754,444.58,552.161,444.58Z" transform="translate(-440.522 -355.478)" fill="#2b2a29"/>
      <path id="_6" data-name="6" d="M589.951,442.52V443.9h-.79a1.945,1.945,0,0,1-1.581-.593,2.415,2.415,0,0,1-.593-1.778v-2.568H586v-1.383h.988V436h1.581v1.581h1.383v1.383h-1.383v2.766a.726.726,0,0,0,.2.593,1.991,1.991,0,0,0,.593.2Z" transform="translate(-470.212 -349.861)" fill="#2b2a29"/>
      <path id="_7" data-name="7" d="M611,430.988c0-.4,0-.593.2-.593a1.5,1.5,0,0,1,.79-.4,1.026,1.026,0,0,1,.79.4c.2,0,.2.2.2.593a.726.726,0,0,1-.2.593c-.2.2-.4.2-.79.2a1.188,1.188,0,0,1-.79-.2A.726.726,0,0,1,611,430.988Zm1.778,1.778v6.322H611.2v-6.322Z" transform="translate(-490.272 -345.046)" fill="#2b2a29"/>
      <path id="_8" data-name="8" d="M629.161,443a3.723,3.723,0,0,1,1.58.4,3.356,3.356,0,0,1,1.185,1.185,2.656,2.656,0,0,1,.4,1.778,2.129,2.129,0,0,1-.4,1.581,1.781,1.781,0,0,1-1.185,1.185,3.359,3.359,0,0,1-3.161,0,1.781,1.781,0,0,1-1.185-1.185,2.129,2.129,0,0,1-.4-1.581,2.656,2.656,0,0,1,.4-1.778,3.355,3.355,0,0,1,1.185-1.185A3.723,3.723,0,0,1,629.161,443Zm0,1.383a1.708,1.708,0,0,0-1.186.593,2.3,2.3,0,0,0-.4,1.383,2.856,2.856,0,0,0,.4,1.383,1.976,1.976,0,0,0,2.371,0,2.856,2.856,0,0,0,.4-1.383,2.3,2.3,0,0,0-.4-1.383A1.708,1.708,0,0,0,629.161,444.383Z" transform="translate(-502.309 -355.478)" fill="#2b2a29"/>
      <path id="_9" data-name="9" d="M667.754,443a2.5,2.5,0,0,1,1.778.79,2.949,2.949,0,0,1,.593,1.976v3.754h-1.581v-3.556a2.809,2.809,0,0,0-.4-1.185,1.509,1.509,0,0,0-.988-.4,2.808,2.808,0,0,0-1.185.4,2.855,2.855,0,0,0-.4,1.383v3.359H664V443.2h1.58v1.185a1.973,1.973,0,0,1,.79-.988A3.664,3.664,0,0,1,667.754,443Z" transform="translate(-532.802 -355.478)" fill="#2b2a29"/>
    </g>
  </g>
</svg>
