<svg xmlns="http://www.w3.org/2000/svg" xmlns:xlink="http://www.w3.org/1999/xlink" width="54.937" height="64.461" viewBox="0 0 54.937 64.461">
  <defs>
    <linearGradient id="linear-gradient" x1="1.247" y1="0.5" x2="0.066" y2="0.5" gradientUnits="objectBoundingBox">
      <stop offset="0" stop-color="#f58733"/>
      <stop offset="1" stop-color="#feab20"/>
    </linearGradient>
  </defs>
  <g id="Group_15364" data-name="Group 15364" transform="translate(1259 -1836)">
    <path id="Path_10462" data-name="Path 10462" d="M124.741,62.087,124.068,54a1.692,1.692,0,0,0-.059-.312l0-.011h0a1.658,1.658,0,0,0-.088-.218c-.012-.027-.02-.057-.034-.083l-.008-.012a1.618,1.618,0,0,0-1.576-.86H122.3l-8.2.663h0a1.639,1.639,0,0,0,.131,3.272c.044,0,.089,0,.134-.006l3.8-.307-10.386,13.3h0a25.424,25.424,0,1,0,2.75,1.805l10.422-13.351a1.717,1.717,0,0,0,.139-.22l.391,4.693a1.639,1.639,0,0,0,1.632,1.5c.045,0,.091,0,.138-.006h0a1.639,1.639,0,0,0,1.5-1.77Zm-7.369,29.43a22.149,22.149,0,1,1-6.487-15.637A22.124,22.124,0,0,1,117.372,91.517Z" transform="translate(-1328.81 1783.5)" fill="url(#linear-gradient)"/>
    <path id="Path_10465" data-name="Path 10465" d="M131.875,174.879a6.231,6.231,0,0,0-3.343,5.7,7.735,7.735,0,0,0,2.8,5.59v7.581a12.121,12.121,0,1,0,24.239,0v-8.442a1.627,1.627,0,0,0-.04-.352c1.991-5.574-.474-8.657-2.142-10-4.968-4.014-14.811-3.159-18.99-.65h0a5.5,5.5,0,0,0-2.525.579Zm11.577,27.874a8.934,8.934,0,0,1-8.841-9.006v-6.22c.061,0,.122.011.184.012a11.222,11.222,0,0,0,1.812.16,10.512,10.512,0,0,0,7.9-3.4q.224.192.476.375h0a10.939,10.939,0,0,0,6.246,1.954q.532,0,1.061-.061v7.175a8.935,8.935,0,0,1-8.842,9.006ZM151.33,177.5c1.635,1.321,2.061,3.2,1.319,5.713a7.3,7.3,0,0,1-2.572.057l-2.572-.869h0a3.415,3.415,0,0,1-1.334-1.107c0-.015-.006-.028-.007-.042-.005-.053-.015-.106-.026-.159s-.019-.1-.033-.154-.032-.092-.05-.138h0a1.6,1.6,0,0,0-.064-.15c-.023-.045-.05-.086-.077-.128s-.056-.089-.089-.13-.066-.077-.1-.114a1.39,1.39,0,0,0-.115-.113c-.036-.031-.075-.061-.113-.089a1.5,1.5,0,0,0-.151-.1c-.02-.012-.037-.027-.059-.038s-.041-.015-.061-.024h0a1.512,1.512,0,0,0-.173-.068c-.045-.015-.09-.029-.136-.04s-.105-.021-.159-.029a1.392,1.392,0,0,0-.165-.016c-.02,0-.038-.006-.058-.006s-.056.007-.084.009a1.532,1.532,0,0,0-.183.018q-.071.012-.14.031a1.488,1.488,0,0,0-.165.051c-.045.017-.089.036-.132.056h0a1.559,1.559,0,0,0-.154.083c-.04.024-.077.05-.114.078h0a1.437,1.437,0,0,0-.137.113c-.035.033-.068.067-.1.1h0a1.476,1.476,0,0,0-.2.271c-.015.026-.035.048-.049.075a7.162,7.162,0,0,1-7.853,3.658l-.021,0a6.164,6.164,0,0,1-1.526-.473l-.024-.009a4.385,4.385,0,0,1-1.846-3.254,2.98,2.98,0,0,1,1.531-2.754,2.462,2.462,0,0,1,2.679.365,1.635,1.635,0,0,0,2.448-2.04c3.9-1.093,9.89-1.04,12.864,1.363Z" transform="translate(-1376.531 1686.238)" fill="url(#linear-gradient)"/>
  </g>
</svg>
