<svg xmlns="http://www.w3.org/2000/svg" xmlns:xlink="http://www.w3.org/1999/xlink" width="50.95" height="61.373" viewBox="0 0 50.95 61.373">
  <defs>
    <linearGradient id="linear-gradient" x1="1.247" y1="0.5" x2="0.066" y2="0.5" gradientUnits="objectBoundingBox">
      <stop offset="0" stop-color="#f58733"/>
      <stop offset="1" stop-color="#feab20"/>
    </linearGradient>
  </defs>
  <path id="noun-transgender-3976556" d="M162.262,60.656v3.609a2.381,2.381,0,0,1-4.762,0V54.881a2.381,2.381,0,0,1,2.381-2.381h9.336a2.381,2.381,0,1,1,0,4.762H165.6l2.43,2.446a2.381,2.381,0,0,1,3.363,3.37l0,0,.984.984a17.863,17.863,0,0,1,21.147,0l6.78-6.75h-3.618a2.381,2.381,0,1,1,0-4.762h9.384a2.381,2.381,0,0,1,2.381,2.381v9.336a2.381,2.381,0,0,1-4.762,0V60.665l-6.738,6.709a17.858,17.858,0,0,1-11.622,28.779v7.3h3.307a2.381,2.381,0,1,1,0,4.762h-3.307v3.278a2.381,2.381,0,0,1-4.762,0v-3.278H177.26a2.381,2.381,0,1,1,0-4.762h3.307v-7.3A17.858,17.858,0,0,1,168.948,67.37l-.923-.923a2.381,2.381,0,0,1-3.365-3.369l0,0Zm11.614,8.358a13.094,13.094,0,1,0,18.166.02l-.055-.053a13.094,13.094,0,0,0-18.1.02Z" transform="translate(-157.5 -52.5)" fill-rule="evenodd" fill="url(#linear-gradient)"/>
</svg>
