<svg xmlns="http://www.w3.org/2000/svg" xmlns:xlink="http://www.w3.org/1999/xlink" width="116" height="116" viewBox="0 0 116 116">
  <defs>
    <linearGradient id="linear-gradient" x1="1.247" y1="0.5" x2="0.066" y2="0.5" gradientUnits="objectBoundingBox">
      <stop offset="0" stop-color="#f58733"/>
      <stop offset="1" stop-color="#feab20"/>
    </linearGradient>
  </defs>
  <g id="Group_15239" data-name="Group 15239" transform="translate(-652 -1787)">
    <circle id="Ellipse_6" data-name="Ellipse 6" cx="58" cy="58" r="58" transform="translate(652 1787)" fill="url(#linear-gradient)"/>
    <g id="Group_2808" data-name="Group 2808" transform="translate(1941.74 -306.692)">
      <path id="Path_3684" data-name="Path 3684" d="M160.657,326.558c-.813-.809-2.382-1.555-5.228-.521-2.663.967-5.288,2.033-7.827,3.066q-1.346.548-2.7,1.091h0a1.507,1.507,0,0,0,1.122,2.8q1.359-.545,2.711-1.1c2.513-1.021,5.111-2.077,7.721-3.025,1.216-.44,1.877-.369,2.074-.174h0a.666.666,0,0,1,.079.792,1.776,1.776,0,0,1-.516.5q-7.833,4.327-15.677,8.634L134.29,343.1c-2.95,1.624-6.307,1.882-10.565.814-3.366-.846-6.769-1.852-10.059-2.825q-2.015-.6-4.031-1.183c-1.082-.312-2.163-.631-3.244-.95-1.447-.426-2.894-.853-4.344-1.266l-1.876-.533-.043,1.95c-.008.34,0,.686.008,1.028,0,.132-.012.207-.007.227a.851.851,0,0,1-.239.035l-.421.016c-.9.032-1.75.065-2.607.051h0a41.936,41.936,0,0,1-6.189-16.7c-.16-1.125-.266-2.247-.38-3.437l-.006-.059c2.309-.069,6.605-.185,9.021-.24h0a1.243,1.243,0,0,1,.321.019,1.487,1.487,0,0,1,.027.263l.068,2.675,1.5-.031c1.021-.021,2.04-.059,3.057-.1,4.578-.172,8.9-.332,13.126,1.027a22.635,22.635,0,0,1,3.564,1.572,17.334,17.334,0,0,0,5.633,2.054,65.41,65.41,0,0,0,10.1.845,2.022,2.022,0,0,1,1.453.53,1.7,1.7,0,0,1,.485,1.263,1.72,1.72,0,0,1-1.725,1.781c-1.831.089-3.706.126-5.519.162q-1.222.023-2.442.052l-7.608.19h0a1.507,1.507,0,0,0-1.468,1.546,1.539,1.539,0,0,0,1.545,1.468l7.606-.19c.809-.021,1.618-.037,2.427-.053,1.835-.036,3.733-.072,5.608-.165a4.826,4.826,0,0,0,3.223-8.188,5.079,5.079,0,0,0-3.639-1.41,59.633,59.633,0,0,1-9.585-.81,14.459,14.459,0,0,1-4.713-1.754,25.624,25.624,0,0,0-4.024-1.764c-4.728-1.518-9.523-1.34-14.161-1.168l-1.518.054a3.037,3.037,0,0,0-3.409-2.886c-3.047.07-10.289.268-10.725.3l-1.544.119.162,1.54c.058.55.109,1.1.161,1.638.111,1.172.226,2.383.4,3.576h0A44.933,44.933,0,0,0,94.461,342.3a2.683,2.683,0,0,0,2.072,1.168c1.03.023,2.055-.011,3.047-.047L100,343.4a3.026,3.026,0,0,0,3.043-2.3q1.251.364,2.5.735,1.629.48,3.26.955c1.339.386,2.677.782,4.013,1.176,3.32.982,6.752,2,10.179,2.857a22.262,22.262,0,0,0,5.435.728,14.863,14.863,0,0,0,7.318-1.823l8.126-4.469q7.845-4.314,15.685-8.638h0a4.753,4.753,0,0,0,1.519-1.4,3.668,3.668,0,0,0-.416-4.67Z" transform="translate(-1360.256 1838.093)" fill="#fff"/>
      <path id="Path_3685" data-name="Path 3685" d="M430.758,214.022l-.689,1.91,2.027.107c.239.013.923.043,1.883.043,3.106,0,9.1-.325,12.307-2.648,3.694-2.679,5.991-6.526,7.021-11.765l.363-1.848-1.883.051c-.969.027-7.085.112-9.183.289a11.267,11.267,0,0,0-8.388,5.454,76.309,76.309,0,0,0-3.459,8.408Zm5.979-6.755a8.371,8.371,0,0,1,6.119-4.1c1.993-.167,6.739-.233,7.058-.238h0a14.2,14.2,0,0,1-5.4,8.068c-2.231,1.618-7.053,2.029-10.192,2.068h0a55.059,55.059,0,0,1,2.412-5.795Z" transform="translate(-1654.601 1938.612)" fill="#fff"/>
      <path id="Path_3686" data-name="Path 3686" d="M231.313,213.439c3.2,2.323,9.2,2.648,12.307,2.648.961,0,1.644-.031,1.883-.043l2.027-.107-.689-1.91h0a76,76,0,0,0-3.459-8.408,11.271,11.271,0,0,0-8.388-5.455c-2.1-.175-11.065-.338-11.065-.338l.363,1.848c1.03,5.239,3.326,9.086,7.02,11.765Zm3.429-10.271h0a8.376,8.376,0,0,1,6.12,4.1,55.108,55.108,0,0,1,2.412,5.8c-3.136-.038-7.956-.447-10.192-2.069a14.2,14.2,0,0,1-5.4-8.068c.319,0,5.065.07,7.056.236Z" transform="translate(-1477.754 1938.608)" fill="#fff"/>
      <path id="Path_3687" data-name="Path 3687" d="M366.622,54.823l1.292,1.565,1.125-1.69c.561-.842,5.466-8.379,4.983-13.538-.425-4.544-2.567-8.48-6.551-12.033l-1.407-1.255-.914,1.649c-.469.845-.943,1.672-1.411,2.49-1.079,1.884-2.1,3.663-3.016,5.56h0a11.271,11.271,0,0,0,.424,10,76.217,76.217,0,0,0,5.476,7.256Zm-3.186-15.94c.871-1.8,1.865-3.537,2.917-5.374q.235-.408.47-.822a14.2,14.2,0,0,1,4.2,8.754c.256,2.743-1.844,7.1-3.409,9.824a55.341,55.341,0,0,1-3.759-5.025,8.377,8.377,0,0,1-.416-7.358Z" transform="translate(-1594.278 2086.128)" fill="#fff"/>
    </g>
  </g>
</svg>
