<svg xmlns="http://www.w3.org/2000/svg" xmlns:xlink="http://www.w3.org/1999/xlink" width="116" height="116" viewBox="0 0 116 116">
  <defs>
    <linearGradient id="linear-gradient" x1="1.247" y1="0.5" x2="0.066" y2="0.5" gradientUnits="objectBoundingBox">
      <stop offset="0" stop-color="#f58733"/>
      <stop offset="1" stop-color="#feab20"/>
    </linearGradient>
  </defs>
  <g id="Group_15240" data-name="Group 15240" transform="translate(-1011 -1787)">
    <circle id="Ellipse_7" data-name="Ellipse 7" cx="58" cy="58" r="58" transform="translate(1011 1787)" fill="url(#linear-gradient)"/>
    <g id="Group_2844" data-name="Group 2844" transform="translate(3876.773 -1532.482)">
      <path id="Path_3717" data-name="Path 3717" d="M132.407,76.27l-1.151,11.511a1.438,1.438,0,0,0,1.43,1.581h8.623a1.438,1.438,0,0,0,1.43-1.581l-1.151-11.512a4.586,4.586,0,0,0-3.154-3.911V68.994c.05-.017.095-.044.144-.065.076-.03.149-.065.223-.1a4.209,4.209,0,0,0,.473-.257c.069-.043.137-.083.2-.131a4.176,4.176,0,0,0,.487-.4c.03-.029.065-.053.094-.082a4.288,4.288,0,0,0,.479-.581c.04-.058.072-.119.109-.18a4.348,4.348,0,0,0,.264-.487c.036-.079.069-.158.1-.24a4.123,4.123,0,0,0,.161-.519c.019-.079.042-.155.058-.235a4.126,4.126,0,0,0,.08-.786,4.236,4.236,0,0,0-.08-.792c-.014-.08-.037-.157-.058-.235a4.064,4.064,0,0,0-.161-.517c-.031-.082-.064-.161-.1-.24a4.344,4.344,0,0,0-.264-.487c-.037-.059-.069-.122-.109-.18a4.369,4.369,0,0,0-.479-.581c-.029-.03-.064-.053-.094-.082a4.371,4.371,0,0,0-.487-.4c-.066-.046-.135-.088-.2-.131a4.217,4.217,0,0,0-.472-.256c-.074-.035-.148-.069-.224-.1-.049-.02-.094-.046-.144-.064V39.671l2.433.881,5.338,1.933,2.932,8.8a30.182,30.182,0,1,0,41.237-9.018l-.789-4.293,8.488-4.851a1.437,1.437,0,0,0-.17-2.578L166.285,17.607a1.439,1.439,0,0,0-1.327.125L136.213,36.416l-.02.019-.022.012a1.46,1.46,0,0,0-.259.232c-.007.008-.012.019-.019.028a1.468,1.468,0,0,0-.184.282,1.172,1.172,0,0,0-.043.114,1.3,1.3,0,0,0-.073.235,1.21,1.21,0,0,0-.017.145c0,.047-.016.093-.016.141v23.26a4.287,4.287,0,0,0,0,8.095V72.36a4.585,4.585,0,0,0-3.154,3.911Zm7.314,10.217h-5.447l.993-9.931a1.739,1.739,0,0,1,3.461,0ZM201.673,67.8a27.307,27.307,0,1,1-48.512-17.173c.114-.141.232-.277.348-.415.481-.569.977-1.125,1.5-1.653.024-.024.046-.05.069-.073.546-.545,1.122-1.059,1.713-1.557.138-.116.275-.232.414-.345.581-.47,1.177-.92,1.794-1.342.131-.089.266-.171.4-.257.522-.343,1.058-.669,1.6-.976.182-.1.362-.21.547-.309.618-.329,1.252-.633,1.9-.916.233-.1.467-.2.7-.292.595-.241,1.2-.466,1.814-.665.213-.069.427-.133.641-.2q.92-.273,1.867-.481c.216-.047.432-.1.649-.141.737-.144,1.485-.26,2.241-.343.175-.02.351-.033.527-.049.815-.071,1.639-.123,2.473-.123.815,0,1.618.052,2.416.122.252.023.5.047.755.078.61.071,1.21.167,1.807.276.437.082.871.178,1.3.282.409.1.818.2,1.22.315.424.122.844.253,1.262.4.24.082.475.174.714.262a27.3,27.3,0,0,1,2.623,1.132c.1.05.2.095.3.146.466.239.923.495,1.376.76A27.3,27.3,0,0,1,201.673,67.8ZM185.552,39.795c-.546-.22-1.1-.421-1.657-.608q-.563-.188-1.131-.354c-.655-.191-1.315-.364-1.982-.51-.277-.06-.558-.11-.838-.164-.783-.149-1.573-.276-2.366-.362-.135-.014-.271-.022-.407-.035-.931-.088-1.866-.141-2.805-.141-.954,0-1.9.055-2.84.144-.118.012-.239.017-.357.03-.85.09-1.69.224-2.523.387-.2.038-.4.076-.6.118q-1.162.25-2.294.591c-.234.071-.467.142-.7.218-.735.239-1.459.5-2.172.8-.211.088-.418.181-.627.273-.731.322-1.453.663-2.157,1.041-.122.066-.24.139-.361.207Q158.7,42,157.721,42.65c-.1.066-.2.128-.3.2-.7.479-1.383.993-2.045,1.531-.109.089-.218.175-.326.266q-.977.815-1.887,1.716c-.092.092-.182.185-.275.277-.574.582-1.132,1.181-1.661,1.813l-2.378-7.136a1.46,1.46,0,0,0-.043-.3c.164-.116.326-.217.49-.33.631-.438,1.26-.871,1.887-1.27.263-.167.523-.312.785-.473.529-.325,1.059-.655,1.585-.953.336-.19.669-.352,1-.532.45-.24.9-.493,1.349-.713.381-.187.757-.343,1.136-.516.4-.181.8-.378,1.2-.543.424-.177.842-.321,1.265-.479.349-.131.7-.277,1.046-.4.465-.158.923-.282,1.383-.417.3-.088.6-.194.9-.271.588-.154,1.172-.273,1.754-.389.168-.033.337-.082.506-.112q1.123-.2,2.232-.313a59.359,59.359,0,0,1,13.989-.012c.033,0,.064.01.1.016.3.043.589.089.861.137.1.019.192.037.292.056.191.036.387.072.563.109.152.031.287.066.43.1.108.024.224.049.326.074.182.046.349.092.513.138l.149.04c.154.044.292.088.429.132.047.016.1.03.148.046.13.043.244.085.359.126.042.014.089.03.13.046.092.035.169.066.252.1.049.02.105.04.149.06l.506,3.03a1.392,1.392,0,0,0,.139.4l.474,2.576c-.089-.042-.181-.078-.27-.118-.432-.2-.864-.389-1.305-.566ZM165.894,20.554l28.2,11.534-5.055,2.889-.321-1.745a1.361,1.361,0,0,0-.161-.372,1.463,1.463,0,0,0-.09-.21,1.447,1.447,0,0,0-.484-.425c-3.621-1.938-10.553-2.627-19.19-1.938q-.864.069-1.749.157c-6.7.661-13.708,3.655-20.832,8.895-.028.02-.052.04-.078.062l-2.893-1.048-.67-.243-2.364-.857ZM137,63.492a1.437,1.437,0,1,1-1.437,1.437A1.439,1.439,0,0,1,137,63.492Z" transform="translate(-2976.171 3317.5)" fill="#fff"/>
      <path id="Path_3719" data-name="Path 3719" d="M269.433,175a24.433,24.433,0,1,0,24.433,24.433A24.46,24.46,0,0,0,269.433,175Zm0,45.991a21.558,21.558,0,1,1,21.558-21.558A21.583,21.583,0,0,1,269.433,220.991Z" transform="translate(-3071.238 3185.87)" fill="#fff"/>
      <path id="Path_3721" data-name="Path 3721" d="M282.222,194.563h8A5.012,5.012,0,0,1,295.1,198.7H282.222v2.484H295.1a5.088,5.088,0,0,1-4.875,4.139h-9.106l15.177,16.1,1.748-1.839-11.221-11.774h3.587a7.648,7.648,0,0,0,7.175-6.623h5.059V198.7h-5.059a8.233,8.233,0,0,0-1.932-4.139h6.99v-2.484h-20.42Z" transform="translate(-3093.686 3179.867)" fill="#fff"/>
    </g>
  </g>
</svg>
